Coordinates
version=1
nRows=34
nColumns=38
inDegrees=no

Units are S.I. units (second, meters, Newtons, ...)
If the header above contains a line with 'inDegrees', this indicates whether rotational values are in degrees (yes) or radians (no).

endheader
time	pelvis_tilt	pelvis_list	pelvis_rotation	pelvis_tx	pelvis_ty	pelvis_tz	hip_flexion_r	hip_adduction_r	hip_rotation_r	knee_angle_r	ankle_angle_r	subtalar_angle_r	mtp_angle_r	hip_flexion_l	hip_adduction_l	hip_rotation_l	knee_angle_l	ankle_angle_l	subtalar_angle_l	mtp_angle_l	lumbar_extension	lumbar_bending	lumbar_rotation	arm_flex_r	arm_add_r	arm_rot_r	elbow_flex_r	pro_sup_r	wrist_flex_r	wrist_dev_r	arm_flex_l	arm_add_l	arm_rot_l	elbow_flex_l	pro_sup_l	wrist_flex_l	wrist_dev_l
0	1.35979	1.52471	0.101237	0.749623	-0.238485	1.03252	0.129324	0.00658222	-0.0116072	0.374567	-0.193696	0	0	-0.061293	-0.0957106	-0.205495	0.149425	-0.296768	0	0	-0.372044	0.144065	0.0206532	0.0928928	-0.511019	0.606073	0.740283	0.677029	0	0	0.155625	-0.27028	0.538616	0.50591	0.941221	0	0
0.01	1.32583	1.5255	0.135591	0.747989	-0.238879	1.03235	0.135496	0.00293884	-0.0119243	0.382721	-0.193652	0	0	-0.0587949	-0.0931526	-0.204129	0.150059	-0.295801	0	0	-0.373437	0.138445	0.0197038	0.0947326	-0.510054	0.60546	0.740753	0.679339	0	0	0.160565	-0.27241	0.54458	0.504477	0.938755	0	0
0.02	1.28209	1.52625	0.178421	0.746486	-0.239166	1.03208	0.142643	-0.000743632	-0.0112001	0.392016	-0.193652	0	0	-0.0565632	-0.0906563	-0.205288	0.150281	-0.295327	0	0	-0.374272	0.132314	0.0194769	0.0963636	-0.509162	0.604945	0.7414	0.681505	0	0	0.164658	-0.27466	0.549345	0.503626	0.937152	0	0
0.03	1.23377	1.52727	0.224699	0.745058	-0.239504	1.03175	0.150757	-0.00479016	-0.00890003	0.403004	-0.193215	0	0	-0.0546318	-0.0877533	-0.207814	0.149914	-0.295115	0	0	-0.375358	0.125607	0.0194809	0.0983207	-0.508553	0.604473	0.742814	0.683297	0	0	0.168193	-0.277237	0.553104	0.503699	0.936844	0	0
0.04	1.20107	1.5285	0.254981	0.743627	-0.239908	1.03147	0.158205	-0.0087938	-0.00580637	0.41386	-0.193149	0	0	-0.0535787	-0.0847259	-0.21055	0.149599	-0.295005	0	0	-0.377472	0.118827	0.0192923	0.100916	-0.508262	0.604471	0.744785	0.684596	0	0	0.171513	-0.279989	0.555768	0.504392	0.937864	0	0
0.05	1.1735	1.52966	0.281217	0.742086	-0.240156	1.03118	0.164855	-0.012977	-0.0047448	0.423845	-0.193673	0	0	-0.0527131	-0.0818772	-0.212307	0.149409	-0.295082	0	0	-0.379569	0.112574	0.0178096	0.103508	-0.507993	0.604669	0.746898	0.685762	0	0	0.174082	-0.282624	0.556865	0.505439	0.93973	0	0
0.06	1.15987	1.53076	0.294173	0.740437	-0.240348	1.03095	0.170958	-0.017408	-0.00537485	0.434354	-0.194856	0	0	-0.0522317	-0.0792986	-0.213529	0.149447	-0.295183	0	0	-0.382403	0.106939	0.0156037	0.10634	-0.508056	0.605089	0.74944	0.687085	0	0	0.176389	-0.284865	0.556186	0.506563	0.942802	0	0
0.07	1.16265	1.53181	0.290391	0.738779	-0.240556	1.0308	0.176807	-0.0216528	-0.00589952	0.445585	-0.196382	0	0	-0.0526318	-0.0769713	-0.215079	0.149177	-0.295228	0	0	-0.386192	0.101697	0.0134656	0.109695	-0.508501	0.606065	0.752366	0.688771	0	0	0.178562	-0.286688	0.55361	0.507589	0.947736	0	0
0.08	1.17988	1.53302	0.271641	0.737165	-0.240831	1.03069	0.182558	-0.0253262	-0.00545055	0.456916	-0.198012	0	0	-0.0537691	-0.074646	-0.216859	0.148771	-0.295212	0	0	-0.390827	0.0964482	0.0115411	0.113594	-0.509251	0.607646	0.755699	0.690755	0	0	0.180439	-0.288266	0.548842	0.509113	0.955009	0	0
0.09	1.22607	1.53453	0.222808	0.735651	-0.240993	1.03078	0.18719	-0.0289909	-0.00453635	0.467981	-0.199592	0	0	-0.0563947	-0.0722151	-0.220982	0.148246	-0.294729	0	0	-0.396523	0.0909197	0.01011	0.118149	-0.50975	0.609756	0.758333	0.693203	0	0	0.181785	-0.289081	0.541223	0.509918	0.964844	0	0
0.1	1.01004	1.53174	0.437598	0.73431	-0.24163	1.03	0.205674	-0.0308672	-0.000397404	0.483408	-0.201609	0	0	-0.0444782	-0.0715794	-0.217249	0.153046	-0.292512	0	0	-0.392903	0.0864001	0.00688929	0.123069	-0.508238	0.610921	0.759369	0.698265	0	0	0.180423	-0.288854	0.520807	0.511885	0.987922	0	0
0.11	0.951048	1.53035	0.493476	0.733179	-0.242085	1.02977	0.21724	-0.0322226	0.00413645	0.497165	-0.203875	0	0	-0.0405565	-0.0710875	-0.219387	0.155096	-0.291908	0	0	-0.393261	0.0815998	0.0100216	0.12483	-0.509428	0.612033	0.761873	0.695323	0	0	0.188448	-0.293366	0.54716	0.510394	0.962761	0	0
0.12	0.881079	1.52801	0.559518	0.732205	-0.242563	1.02947	0.230648	-0.0326955	0.00985985	0.511949	-0.206867	0	0	-0.0357597	-0.0710671	-0.22223	0.157166	-0.290967	0	0	-0.392845	0.0771137	0.0134746	0.126962	-0.510313	0.613119	0.76408	0.694989	0	0	0.194752	-0.29641	0.564993	0.508667	0.945637	0	0
0.13	0.806458	1.52511	0.630322	0.731241	-0.243135	1.02915	0.245212	-0.0329841	0.0163151	0.527162	-0.210459	0	0	-0.0297289	-0.0709611	-0.224952	0.160137	-0.289736	0	0	-0.391939	0.0729985	0.0169224	0.129385	-0.511391	0.61458	0.766227	0.696049	0	0	0.200947	-0.29904	0.58174	0.506799	0.930481	0	0
0.14	0.742525	1.52204	0.690669	0.73031	-0.243718	1.02887	0.259552	-0.0331221	0.0225357	0.542042	-0.213649	0	0	-0.0234756	-0.0708105	-0.227645	0.163566	-0.288308	0	0	-0.391079	0.069249	0.020251	0.132156	-0.512584	0.616811	0.768127	0.698294	0	0	0.206994	-0.301474	0.59792	0.505139	0.917191	0	0
0.15	0.69378	1.51904	0.735928	0.729485	-0.244309	1.02862	0.273236	-0.0328973	0.0284558	0.556704	-0.215584	0	0	-0.0174148	-0.0709307	-0.23045	0.167519	-0.286626	0	0	-0.390636	0.065758	0.0236055	0.135285	-0.51386	0.619848	0.769915	0.701553	0	0	0.212722	-0.30401	0.613439	0.504235	0.904945	0	0
0.16	0.658826	1.51638	0.767815	0.728752	-0.244885	1.02839	0.285473	-0.0325148	0.0337627	0.57028	-0.215968	0	0	-0.0117379	-0.0712997	-0.23294	0.17201	-0.284619	0	0	-0.39079	0.0625243	0.0266555	0.13882	-0.515068	0.623575	0.771492	0.705432	0	0	0.218206	-0.306724	0.628459	0.504019	0.893203	0	0
0.17	0.64537	1.51458	0.778635	0.72811	-0.245381	1.02824	0.295221	-0.0320164	0.0379665	0.582581	-0.214664	0	0	-0.00773156	-0.0719103	-0.235025	0.175981	-0.282883	0	0	-0.392456	0.0595906	0.0292051	0.142859	-0.516164	0.627742	0.773036	0.708721	0	0	0.222922	-0.309397	0.640069	0.504672	0.884547	0	0
0.18	0.667334	1.51493	0.753718	0.727645	-0.245642	1.02834	0.300664	-0.0316019	0.0409885	0.593727	-0.211642	0	0	-0.0076794	-0.072515	-0.239338	0.17886	-0.281511	0	0	-0.397027	0.0564243	0.0321765	0.147294	-0.517173	0.632587	0.774229	0.711811	0	0	0.227655	-0.312184	0.65191	0.505478	0.876057	0	0
0.19	0.621945	1.51098	0.798528	0.727208	-0.246125	1.02785	0.311511	-0.0306385	0.0435829	0.603662	-0.20603	0	0	0.000930045	-0.0738496	-0.237496	0.185707	-0.278444	0	0	-0.395914	0.0540078	0.0339345	0.150783	-0.517431	0.636828	0.77463	0.714799	0	0	0.232993	-0.315712	0.667521	0.506257	0.864657	0	0
0.2	0.614027	1.50866	0.806111	0.726887	-0.246408	1.02766	0.317089	-0.0293355	0.0444968	0.608944	-0.200244	0	0	0.00605246	-0.075432	-0.236392	0.191491	-0.275707	0	0	-0.397757	0.0519728	0.0357104	0.154665	-0.517315	0.640773	0.774323	0.716566	0	0	0.238033	-0.318412	0.679125	0.506583	0.856725	0	0
0.21	0.616677	1.50669	0.803057	0.726753	-0.24661	1.02754	0.32086	-0.0273706	0.0445579	0.611677	-0.192735	0	0	0.0104097	-0.0774865	-0.236072	0.197722	-0.272752	0	0	-0.400553	0.0501179	0.0380259	0.158701	-0.517012	0.644956	0.773552	0.71775	0	0	0.243365	-0.320835	0.690529	0.50644	0.848971	0	0
0.22	0.627186	1.50484	0.792331	0.726777	-0.246774	1.02742	0.323322	-0.0246154	0.0440828	0.612227	-0.184857	0	0	0.0143682	-0.0801112	-0.235876	0.204204	-0.269611	0	0	-0.404044	0.0485196	0.0408807	0.162595	-0.516662	0.649071	0.772507	0.718062	0	0	0.24918	-0.322947	0.701782	0.505705	0.84161	0	0
0.23	0.638407	1.5029	0.781361	0.726919	-0.246948	1.02727	0.325018	-0.0213068	0.0438084	0.610826	-0.176608	0	0	0.0189049	-0.0831945	-0.235327	0.212089	-0.265558	0	0	-0.407635	0.0470531	0.0443294	0.166126	-0.516382	0.653246	0.771151	0.717332	0	0	0.256204	-0.324959	0.715943	0.504015	0.832684	0	0
0.24	0.6463	1.50108	0.774188	0.727128	-0.247138	1.0271	0.326008	-0.0180811	0.0436695	0.607571	-0.172636	0	0	0.0235059	-0.0860431	-0.233742	0.219468	-0.262446	0	0	-0.411602	0.045553	0.0473973	0.169855	-0.515769	0.656929	0.769479	0.716178	0	0	0.262954	-0.32637	0.726378	0.501936	0.826574	0	0
0.25	0.645614	1.49884	0.776104	0.727407	-0.247399	1.02681	0.327247	-0.0149005	0.0439689	0.603308	-0.170758	0	0	0.0299935	-0.0891988	-0.232066	0.229545	-0.257749	0	0	-0.414791	0.0440231	0.0511458	0.173146	-0.51533	0.660744	0.767427	0.713406	0	0	0.271041	-0.327278	0.739749	0.498509	0.818981	0	0
0.26	0.635258	1.49649	0.788183	0.727726	-0.24769	1.02639	0.328609	-0.012286	0.044444	0.598558	-0.17249	0	0	0.03747	-0.0919333	-0.22981	0.239955	-0.253116	0	0	-0.417563	0.0421912	0.0546491	0.176366	-0.514797	0.664554	0.76531	0.709808	0	0	0.279219	-0.327834	0.752303	0.49464	0.812287	0	0
0.27	0.654098	1.49801	0.77049	0.728087	-0.247692	1.02638	0.323611	-0.0111798	0.0445942	0.591229	-0.177336	0	0	0.0388908	-0.0930293	-0.231282	0.247451	-0.249719	0	0	-0.425044	0.038989	0.0587155	0.180011	-0.51459	0.66923	0.763	0.706108	0	0	0.28781	-0.327948	0.763914	0.490477	0.805798	0	0
0.28	0.59998	1.49188	0.828527	0.728532	-0.248252	1.02519	0.330069	-0.00831225	0.0461295	0.586941	-0.185553	0	0	0.0545304	-0.0962644	-0.223914	0.2626	-0.242846	0	0	-0.422777	0.0378473	0.0616679	0.182275	-0.513907	0.673778	0.760108	0.701451	0	0	0.296352	-0.328237	0.777042	0.485981	0.797564	0	0
0.29	0.564357	1.48916	0.866875	0.729154	-0.248512	1.02432	0.331489	-0.00686055	0.04905	0.580936	-0.194633	0	0	0.0652569	-0.0978391	-0.221583	0.275777	-0.236786	0	0	-0.424046	0.0346796	0.0650982	0.185102	-0.512401	0.678252	0.756094	0.695941	0	0	0.304721	-0.32826	0.788688	0.481105	0.789523	0	0
0.3	0.496676	1.48342	0.938382	0.72975	-0.248917	1.02288	0.338424	-0.0064276	0.0525533	0.578141	-0.211031	0	0	0.0835473	-0.0993734	-0.218555	0.296385	-0.223066	0	0	-0.418838	0.0318115	0.0641284	0.19856	-0.513871	0.714113	0.747547	0.645631	0	0	0.311201	-0.329475	0.804226	0.474662	0.774346	0	0
0.31	0.455838	1.48059	0.983847	0.73032	-0.249227	1.02175	0.340563	-0.00682065	0.054275	0.574594	-0.212308	0	0	0.0962268	-0.0998268	-0.214413	0.311478	-0.216957	0	0	-0.420262	0.0286828	0.0645824	0.202917	-0.511989	0.721314	0.742921	0.634879	0	0	0.316742	-0.328818	0.802388	0.470674	0.777875	0	0
0.32	0.422935	1.47785	1.02197	0.730953	-0.249547	1.02054	0.342134	-0.00666795	0.0551405	0.570899	-0.209476	0	0	0.109002	-0.10059	-0.209242	0.327346	-0.210934	0	0	-0.422546	0.0260246	0.0650669	0.20684	-0.510271	0.728199	0.738364	0.624835	0	0	0.322403	-0.328082	0.799365	0.466924	0.782225	0	0
0.33	0.396657	1.47388	1.05465	0.731603	-0.249928	1.01914	0.344642	-0.00577737	0.0547655	0.567285	-0.20293	0	0	0.124977	-0.102521	-0.202328	0.348529	-0.202585	0	0	-0.424314	0.0248056	0.065313	0.211112	-0.509036	0.73705	0.73347	0.612155	0	0	0.327918	-0.326229	0.792664	0.461929	0.789656	0	0
